<svg xmlns="http://www.w3.org/2000/svg" id="canvas" viewBox="535.706 302.707 515.733 165.772"><path d="M 609.82,324.50 C 609.93 322.72, 609.24 321.51, 607.77 320.02 C 606.31 318.52, 605.05 317.84, 602.51 317.01 C 599.98 316.18, 598.20 315.84, 595.08 315.87 C 591.97 315.89, 590.26 316.25, 586.95 317.13 C 583.65 318.01, 581.98 318.72, 578.56 320.25 C 575.15 321.78, 573.33 322.66, 569.87 324.78 C 566.41 326.89, 564.60 328.13, 561.26 330.83 C 557.92 333.54, 556.18 335.08, 553.19 338.31 C 550.19 341.54, 548.67 343.34, 546.28 346.99 C 543.89 350.64, 542.74 352.63, 541.26 356.56 C 539.77 360.48, 539.17 362.61, 538.86 366.62 C 538.55 370.64, 538.65 372.85, 539.70 376.63 C 540.74 380.41, 541.72 382.37, 544.08 385.52 C 546.45 388.68, 548.11 390.14, 551.53 392.41 C 554.95 394.69, 557.05 395.64, 561.18 396.90 C 565.31 398.17, 567.68 398.48, 572.18 398.73 C 576.67 398.98, 579.12 398.84, 583.65 398.17 C 588.19 397.51, 590.56 396.93, 594.86 395.40 C 599.17 393.86, 601.31 392.81, 605.18 390.50 C 609.05 388.18, 610.97 386.81, 614.21 383.84 C 617.45 380.86, 618.95 379.13, 621.38 375.63 C 623.82 372.13, 624.82 370.16, 626.39 366.33 C 627.96 362.49, 628.50 360.40, 629.22 356.43 C 629.95 352.47, 630.03 350.38, 630.03 346.52 C 630.03 342.65, 629.70 340.71, 629.22 337.11 C 628.74 333.50, 628.71 331.56, 627.63 328.50 C 626.56 325.45, 625.83 323.52, 623.84 321.83 C 621.85 320.15, 620.04 319.77, 617.69 320.07 C 615.34 320.38, 613.62 321.26, 612.10 323.36 C 610.58 325.46, 609.86 327.35, 610.08 330.59 C 610.31 333.84, 611.85 335.74, 613.22 339.58 C 614.59 343.42, 615.37 345.63, 616.93 349.78 C 618.48 353.94, 619.25 356.16, 620.99 360.35 C 622.73 364.53, 623.63 366.65, 625.63 370.70 C 627.64 374.76, 628.72 376.87, 631.01 380.62 C 633.29 384.37, 634.49 386.30, 637.08 389.45 C 639.66 392.61, 641.14 394.46, 643.92 396.39 C 646.71 398.33, 649.02 399.33, 650.99 399.13 C 652.96 398.94, 654.04 397.29, 653.79 395.42 C 653.54 393.54, 651.79 392.06, 649.73 389.76 C 647.68 387.46, 645.94 386.59, 643.52 383.92 C 641.10 381.25, 639.83 379.73, 637.62 376.41 C 635.42 373.10, 634.35 371.10, 632.49 367.32 C 630.62 363.54, 629.74 361.51, 628.28 357.50 C 626.82 353.49, 626.14 351.34, 625.19 347.27 C 624.25 343.20, 623.95 340.87, 623.56 337.17 C 623.17 333.47, 623.84 331.38, 623.25 328.78 C 622.67 326.17, 621.87 325.18, 620.63 324.12 C 619.39 323.07, 618.18 322.98, 617.06 323.51 C 615.94 324.05, 615.09 325.00, 615.04 326.78 C 615.00 328.55, 615.94 329.96, 616.85 332.41 C 617.77 334.85, 618.82 336.14, 619.63 339.01 C 620.43 341.88, 620.69 343.57, 620.88 346.77 C 621.08 349.97, 621.07 351.72, 620.60 355.01 C 620.13 358.31, 619.74 360.04, 618.54 363.25 C 617.35 366.46, 616.58 368.09, 614.63 371.04 C 612.68 374.00, 611.49 375.47, 608.79 378.02 C 606.10 380.58, 604.47 381.81, 601.16 383.82 C 597.86 385.83, 595.99 386.76, 592.27 388.06 C 588.55 389.36, 586.48 389.83, 582.58 390.31 C 578.68 390.80, 576.51 390.83, 572.77 390.50 C 569.03 390.16, 567.08 389.75, 563.86 388.63 C 560.64 387.51, 559.13 386.63, 556.66 384.89 C 554.20 383.15, 553.16 382.09, 551.54 379.93 C 549.92 377.77, 549.33 376.64, 548.56 374.09 C 547.80 371.54, 547.58 370.12, 547.72 367.19 C 547.85 364.27, 548.13 362.61, 549.23 359.47 C 550.33 356.33, 551.21 354.58, 553.20 351.49 C 555.20 348.39, 556.54 346.75, 559.20 343.98 C 561.86 341.21, 563.48 339.85, 566.51 337.63 C 569.55 335.41, 571.26 334.43, 574.39 332.88 C 577.51 331.32, 579.20 330.70, 582.15 329.85 C 585.10 329.00, 586.65 328.85, 589.15 328.61 C 591.66 328.38, 592.63 328.49, 594.67 328.68 C 596.71 328.87, 597.62 329.33, 599.35 329.58 C 601.09 329.82, 601.76 330.03, 603.34 329.90 C 604.91 329.77, 605.94 329.99, 607.24 328.91 C 608.53 327.83, 609.72 326.27, 609.82 324.50" style="stroke: black; fill: black;"/><path d="M 678.29,328.24 C 676.67 328.74, 675.92 329.62, 674.86 331.55 C 673.80 333.48, 673.08 334.92, 673.00 337.88 C 672.92 340.84, 673.77 342.83, 674.46 346.34 C 675.15 349.85, 675.60 351.80, 676.45 355.42 C 677.29 359.04, 677.74 360.90, 678.68 364.43 C 679.62 367.96, 680.08 369.76, 681.15 373.07 C 682.21 376.39, 682.59 378.14, 684.01 381.01 C 685.43 383.88, 686.34 385.27, 688.26 387.41 C 690.19 389.55, 691.28 390.54, 693.62 391.72 C 695.96 392.90, 697.38 393.29, 699.95 393.30 C 702.52 393.32, 704.06 393.00, 706.49 391.82 C 708.92 390.64, 710.23 389.70, 712.10 387.41 C 713.96 385.11, 714.56 383.48, 715.81 380.35 C 717.07 377.22, 717.34 375.28, 718.37 371.77 C 719.39 368.26, 719.90 366.29, 720.94 362.80 C 721.98 359.30, 722.57 357.43, 723.56 354.30 C 724.55 351.17, 725.55 349.61, 725.89 347.14 C 726.23 344.66, 726.01 343.16, 725.25 341.91 C 724.48 340.66, 723.19 340.42, 722.06 340.87 C 720.94 341.32, 720.00 342.30, 719.63 344.15 C 719.26 345.99, 719.19 347.42, 720.21 350.09 C 721.24 352.77, 722.84 354.37, 724.75 357.52 C 726.65 360.67, 727.65 362.54, 729.74 365.83 C 731.83 369.12, 732.90 370.83, 735.19 373.96 C 737.47 377.08, 738.61 378.68, 741.16 381.46 C 743.71 384.25, 745.10 385.65, 747.94 387.88 C 750.77 390.10, 752.23 391.29, 755.33 392.59 C 758.42 393.89, 760.20 394.20, 763.43 394.38 C 766.67 394.56, 768.41 394.42, 771.50 393.48 C 774.59 392.54, 776.26 391.78, 778.86 389.69 C 781.47 387.59, 782.70 386.09, 784.53 383.03 C 786.37 379.97, 786.94 378.08, 788.04 374.38 C 789.15 370.69, 789.52 368.62, 790.06 364.56 C 790.60 360.50, 790.73 358.27, 790.74 354.09 C 790.75 349.91, 790.55 347.71, 790.11 343.67 C 789.66 339.63, 789.28 337.62, 788.51 333.90 C 787.74 330.18, 787.38 328.22, 786.26 325.09 C 785.14 321.96, 784.38 320.23, 782.90 318.26 C 781.43 316.29, 780.30 315.98, 778.89 315.25 C 777.48 314.51, 776.90 314.37, 775.85 314.57 C 774.79 314.77, 774.16 315.37, 773.62 316.25 C 773.08 317.14, 773.17 317.59, 773.16 319.00 C 773.15 320.40, 772.91 321.27, 773.58 323.28 C 774.25 325.30, 775.32 326.48, 776.52 329.06 C 777.72 331.63, 778.62 333.04, 779.60 336.17 C 780.57 339.30, 780.93 341.15, 781.39 344.71 C 781.85 348.27, 782.01 350.30, 781.91 353.96 C 781.81 357.63, 781.58 359.64, 780.89 363.06 C 780.20 366.47, 779.63 368.24, 778.47 371.05 C 777.31 373.85, 776.46 375.05, 775.09 377.07 C 773.72 379.10, 772.99 379.88, 771.62 381.17 C 770.26 382.46, 769.74 382.96, 768.25 383.51 C 766.77 384.06, 765.97 384.11, 764.21 383.91 C 762.45 383.72, 761.53 383.38, 759.45 382.55 C 757.38 381.72, 756.14 381.30, 753.85 379.78 C 751.56 378.26, 750.23 377.21, 748.00 374.97 C 745.77 372.72, 744.65 371.36, 742.70 368.58 C 740.76 365.79, 739.78 364.18, 738.26 361.04 C 736.74 357.90, 736.06 356.15, 735.10 352.88 C 734.13 349.62, 734.57 347.40, 733.43 344.73 C 732.28 342.06, 731.32 341.01, 729.37 339.53 C 727.43 338.06, 725.99 337.43, 723.71 337.34 C 721.43 337.25, 719.77 337.66, 717.97 339.07 C 716.16 340.47, 715.60 341.84, 714.70 344.35 C 713.80 346.85, 714.12 348.49, 713.44 351.60 C 712.77 354.70, 712.34 356.56, 711.31 359.88 C 710.28 363.19, 709.64 365.10, 708.31 368.18 C 706.98 371.25, 705.97 372.78, 704.66 375.25 C 703.36 377.71, 702.60 378.80, 701.79 380.49 C 700.98 382.18, 700.97 382.87, 700.62 383.70 C 700.27 384.54, 700.37 384.66, 700.02 384.66 C 699.67 384.66, 699.53 384.47, 698.86 383.68 C 698.19 382.90, 697.67 382.30, 696.66 380.75 C 695.65 379.20, 695.03 378.15, 693.82 375.93 C 692.61 373.72, 691.76 372.44, 690.61 369.65 C 689.46 366.86, 688.91 365.17, 688.09 361.96 C 687.27 358.76, 686.89 356.99, 686.50 353.64 C 686.11 350.28, 686.08 348.41, 686.12 345.21 C 686.16 342.00, 686.88 340.16, 686.69 337.61 C 686.50 335.05, 685.92 334.14, 685.17 332.43 C 684.43 330.73, 684.32 329.92, 682.95 329.09 C 681.57 328.25, 679.91 327.75, 678.29 328.24" style="stroke: black; fill: black;"/><path d="M 819.39,321.14 C 817.98 321.75, 817.39 322.42, 816.76 324.17 C 816.13 325.92, 815.71 327.32, 816.23 329.87 C 816.75 332.41, 817.64 334.03, 819.36 336.90 C 821.09 339.78, 822.53 341.18, 824.88 344.24 C 827.22 347.30, 828.45 348.99, 831.09 352.19 C 833.72 355.40, 835.13 357.13, 838.05 360.26 C 840.98 363.40, 842.57 365.02, 845.72 367.86 C 848.87 370.70, 850.53 372.08, 853.81 374.48 C 857.09 376.89, 858.79 378.04, 862.12 379.89 C 865.45 381.74, 867.10 382.61, 870.45 383.73 C 873.79 384.85, 875.55 385.35, 878.85 385.49 C 882.15 385.63, 883.90 385.32, 886.96 384.42 C 890.02 383.53, 891.52 382.80, 894.14 381.01 C 896.76 379.21, 898.07 378.03, 900.07 375.46 C 902.07 372.89, 902.94 371.20, 904.12 368.15 C 905.30 365.11, 906.10 363.29, 905.96 360.22 C 905.83 357.15, 905.09 354.37, 903.44 352.80 C 901.80 351.24, 899.57 351.28, 897.73 352.39 C 895.89 353.49, 895.24 356.02, 894.24 358.33 C 893.24 360.64, 893.44 361.84, 892.72 363.93 C 891.99 366.02, 891.61 367.12, 890.62 368.79 C 889.62 370.45, 889.06 371.16, 887.73 372.27 C 886.40 373.38, 885.68 373.80, 883.97 374.32 C 882.25 374.84, 881.31 374.87, 879.16 374.85 C 877.01 374.83, 875.79 374.82, 873.21 374.22 C 870.62 373.62, 869.14 373.17, 866.24 371.83 C 863.34 370.50, 861.71 369.56, 858.71 367.54 C 855.71 365.52, 854.12 364.30, 851.24 361.72 C 848.35 359.14, 846.88 357.61, 844.28 354.63 C 841.69 351.65, 840.40 349.98, 838.27 346.82 C 836.14 343.66, 835.10 341.92, 833.64 338.83 C 832.19 335.73, 831.91 333.99, 831.00 331.34 C 830.09 328.70, 830.00 327.35, 829.10 325.61 C 828.20 323.86, 827.55 323.52, 826.50 322.62 C 825.44 321.71, 825.24 321.39, 823.82 321.09 C 822.40 320.80, 820.81 320.52, 819.39 321.14" style="stroke: black; fill: black;"/><path d="M 911.16,323.55 C 909.55 323.19, 908.47 323.47, 906.64 324.65 C 904.80 325.84, 903.69 326.80, 901.99 329.47 C 900.29 332.14, 899.85 334.27, 898.13 338.01 C 896.41 341.74, 895.44 343.82, 893.40 348.13 C 891.35 352.44, 890.18 354.76, 887.91 359.57 C 885.63 364.38, 884.36 366.95, 882.01 372.18 C 879.66 377.41, 878.43 380.18, 876.15 385.73 C 873.87 391.27, 872.73 394.21, 870.62 399.89 C 868.51 405.58, 867.44 408.54, 865.59 414.14 C 863.74 419.74, 862.88 422.59, 861.39 427.89 C 859.90 433.20, 859.23 435.85, 858.13 440.65 C 857.02 445.46, 856.28 448.00, 855.87 451.93 C 855.45 455.86, 855.45 457.71, 856.05 460.31 C 856.64 462.92, 857.58 464.10, 858.83 464.95 C 860.08 465.80, 861.25 465.59, 862.29 464.57 C 863.34 463.56, 863.73 462.29, 864.06 459.88 C 864.38 457.47, 863.77 456.11, 863.90 452.51 C 864.03 448.91, 864.05 446.50, 864.71 441.88 C 865.36 437.26, 865.92 434.61, 867.18 429.41 C 868.44 424.21, 869.26 421.40, 871.00 415.89 C 872.74 410.38, 873.80 407.45, 875.89 401.86 C 877.98 396.27, 879.12 393.37, 881.45 387.95 C 883.78 382.54, 885.05 379.83, 887.53 374.77 C 890.01 369.70, 891.34 367.20, 893.87 362.62 C 896.40 358.05, 897.68 355.81, 900.19 351.88 C 902.70 347.95, 903.99 346.10, 906.40 342.98 C 908.80 339.86, 910.53 338.70, 912.22 336.26 C 913.91 333.82, 914.36 332.73, 914.86 330.77 C 915.36 328.81, 915.47 327.90, 914.73 326.46 C 913.99 325.01, 912.78 323.91, 911.16 323.55" style="stroke: black; fill: black;"/><path d="M 945.01,320.79 C 943.53 321.26, 943.04 321.83, 942.03 323.41 C 941.02 324.98, 940.25 326.06, 939.98 328.65 C 939.70 331.24, 940.39 333.04, 940.65 336.36 C 940.90 339.68, 941.14 341.62, 941.27 345.25 C 941.40 348.87, 941.40 350.84, 941.31 354.48 C 941.22 358.12, 941.08 360.02, 940.80 363.44 C 940.52 366.86, 940.03 368.63, 939.91 371.58 C 939.79 374.52, 939.65 376.04, 940.21 378.17 C 940.76 380.31, 941.23 381.28, 942.69 382.27 C 944.14 383.25, 945.57 383.45, 947.48 383.11 C 949.40 382.78, 950.86 382.17, 952.25 380.59 C 953.63 379.01, 954.15 377.74, 954.41 375.21 C 954.68 372.68, 953.73 371.02, 953.58 367.94 C 953.43 364.85, 953.33 363.13, 953.66 359.79 C 953.98 356.44, 954.29 354.63, 955.21 351.20 C 956.13 347.78, 956.74 346.03, 958.25 342.66 C 959.76 339.28, 960.65 337.48, 962.77 334.32 C 964.88 331.16, 966.12 329.57, 968.83 326.86 C 971.54 324.15, 973.17 322.84, 976.32 320.75 C 979.47 318.66, 981.20 317.67, 984.58 316.41 C 987.96 315.14, 989.83 314.79, 993.22 314.41 C 996.62 314.03, 998.38 314.04, 1001.58 314.51 C 1004.77 314.98, 1006.31 315.44, 1009.20 316.77 C 1012.09 318.10, 1013.50 318.99, 1016.04 321.17 C 1018.57 323.35, 1019.76 324.66, 1021.88 327.66 C 1024.01 330.67, 1024.95 332.48, 1026.65 336.18 C 1028.35 339.87, 1029.09 342.03, 1030.40 346.15 C 1031.71 350.28, 1032.20 352.50, 1033.19 356.80 C 1034.17 361.10, 1034.54 363.46, 1035.33 367.67 C 1036.12 371.89, 1036.58 374.20, 1037.14 377.87 C 1037.71 381.55, 1037.39 383.50, 1038.16 386.05 C 1038.94 388.61, 1039.96 389.31, 1041.03 390.65 C 1042.10 391.99, 1042.47 392.45, 1043.53 392.75 C 1044.59 393.04, 1045.49 392.86, 1046.33 392.14 C 1047.17 391.42, 1047.33 390.82, 1047.72 389.14 C 1048.12 387.47, 1048.70 386.43, 1048.31 383.78 C 1047.93 381.14, 1046.86 379.49, 1045.80 375.93 C 1044.74 372.37, 1044.06 370.15, 1043.00 365.98 C 1041.94 361.81, 1041.58 359.49, 1040.51 355.07 C 1039.44 350.66, 1039.00 348.33, 1037.66 343.91 C 1036.32 339.49, 1035.64 337.15, 1033.83 332.98 C 1032.03 328.80, 1031.07 326.66, 1028.63 323.02 C 1026.18 319.39, 1024.78 317.60, 1021.61 314.79 C 1018.45 311.99, 1016.56 310.72, 1012.80 308.98 C 1009.03 307.24, 1006.89 306.66, 1002.77 306.09 C 998.66 305.53, 996.44 305.61, 992.22 306.16 C 988.00 306.71, 985.74 307.24, 981.68 308.82 C 977.61 310.41, 975.59 311.62, 971.89 314.08 C 968.19 316.55, 966.35 318.03, 963.17 321.15 C 960.00 324.26, 958.54 326.10, 956.02 329.66 C 953.50 333.23, 952.45 335.23, 950.55 338.98 C 948.66 342.74, 947.92 344.68, 946.55 348.45 C 945.18 352.22, 944.75 354.22, 943.71 357.83 C 942.67 361.44, 942.24 363.25, 941.34 366.49 C 940.44 369.72, 939.35 371.39, 939.21 374.01 C 939.07 376.63, 939.54 377.97, 940.64 379.58 C 941.75 381.18, 943.10 381.67, 944.74 382.05 C 946.37 382.43, 947.60 382.31, 948.82 381.48 C 950.04 380.66, 950.40 379.87, 950.86 377.92 C 951.31 375.97, 951.16 374.56, 951.11 371.73 C 951.07 368.90, 950.70 367.15, 950.65 363.77 C 950.59 360.39, 950.68 358.46, 950.85 354.82 C 951.02 351.19, 951.10 349.21, 951.48 345.59 C 951.86 341.98, 952.27 340.06, 952.74 336.76 C 953.22 333.46, 953.98 331.67, 953.86 329.08 C 953.74 326.49, 953.03 325.42, 952.15 323.81 C 951.27 322.20, 950.88 321.63, 949.45 321.02 C 948.02 320.42, 946.50 320.31, 945.01 320.79" style="stroke: black; fill: black;"/></svg>