<svg xmlns="http://www.w3.org/2000/svg" id="canvas" viewBox="536.165 280.349 441.857 154.624"><path d="M 541.87,335.48 C 540.37 336.59, 539.91 338.08, 539.43 340.54 C 538.95 343.00, 539.22 344.51, 539.48 347.79 C 539.74 351.08, 540.28 353.24, 540.73 356.98 C 541.18 360.73, 541.36 362.64, 541.74 366.52 C 542.11 370.40, 542.24 372.46, 542.59 376.39 C 542.94 380.31, 543.11 382.37, 543.47 386.16 C 543.84 389.94, 544.04 391.88, 544.43 395.31 C 544.82 398.74, 544.78 400.49, 545.43 403.32 C 546.08 406.14, 546.45 407.52, 547.67 409.42 C 548.89 411.32, 549.66 412.17, 551.54 412.83 C 553.43 413.48, 555.06 413.45, 557.10 412.68 C 559.14 411.92, 560.60 411.13, 561.74 408.99 C 562.89 406.85, 562.92 405.28, 562.82 402.00 C 562.73 398.71, 561.73 396.65, 561.26 392.56 C 560.79 388.47, 560.63 386.16, 560.47 381.53 C 560.30 376.90, 560.37 374.43, 560.44 369.41 C 560.52 364.38, 560.60 361.66, 560.85 356.41 C 561.09 351.16, 561.26 348.39, 561.68 343.15 C 562.10 337.90, 562.35 335.21, 562.95 330.18 C 563.56 325.15, 563.87 322.55, 564.70 318.01 C 565.53 313.46, 566.03 311.24, 567.11 307.46 C 568.18 303.67, 568.95 301.87, 570.08 299.09 C 571.22 296.31, 572.08 295.23, 572.79 293.57 C 573.50 291.92, 573.42 291.19, 573.61 290.81 C 573.81 290.43, 573.32 290.70, 573.77 291.68 C 574.22 292.66, 574.45 293.51, 575.87 295.71 C 577.30 297.92, 578.88 299.20, 580.90 302.71 C 582.92 306.22, 584.02 308.60, 585.98 313.27 C 587.94 317.93, 588.86 320.69, 590.69 326.03 C 592.52 331.38, 593.37 334.29, 595.13 339.99 C 596.88 345.69, 597.73 348.75, 599.45 354.52 C 601.18 360.29, 602.07 363.29, 603.77 368.82 C 605.47 374.34, 606.38 377.09, 607.97 382.14 C 609.57 387.20, 610.38 389.68, 611.73 394.10 C 613.09 398.51, 613.64 400.64, 614.74 404.21 C 615.84 407.79, 616.14 409.67, 617.24 411.96 C 618.33 414.25, 619.08 414.73, 620.21 415.67 C 621.33 416.61, 621.65 416.71, 622.85 416.66 C 624.05 416.60, 625.33 416.02, 626.21 415.39 C 627.09 414.77, 628.28 413.48, 627.25 413.55 C 626.23 413.61, 621.95 415.21, 621.09 415.73 C 620.22 416.24, 621.96 416.32, 622.93 416.12 C 623.91 415.93, 625.17 415.49, 625.97 414.76 C 626.76 414.04, 626.86 413.85, 626.90 412.51 C 626.95 411.17, 627.09 410.34, 626.20 408.07 C 625.32 405.80, 624.07 404.41, 622.46 401.16 C 620.86 397.90, 619.92 395.97, 618.18 391.78 C 616.45 387.59, 615.56 385.12, 613.77 380.18 C 611.98 375.24, 611.03 372.53, 609.25 367.08 C 607.47 361.62, 606.58 358.65, 604.86 352.90 C 603.15 347.16, 602.32 344.09, 600.68 338.34 C 599.05 332.59, 598.26 329.66, 596.69 324.15 C 595.12 318.64, 594.35 315.85, 592.82 310.81 C 591.29 305.77, 590.61 303.24, 589.05 298.97 C 587.50 294.69, 587.16 292.41, 585.04 289.44 C 582.93 286.47, 581.33 285.20, 578.48 284.12 C 575.62 283.04, 573.52 283.17, 570.75 284.04 C 567.99 284.91, 566.50 286.05, 564.65 288.47 C 562.80 290.89, 562.51 292.68, 561.50 296.14 C 560.49 299.59, 560.33 301.60, 559.61 305.76 C 558.88 309.92, 558.51 312.20, 557.89 316.94 C 557.27 321.68, 557.02 324.33, 556.51 329.47 C 556.00 334.61, 555.76 337.32, 555.33 342.63 C 554.90 347.95, 554.71 350.74, 554.35 356.03 C 553.98 361.33, 553.86 364.06, 553.51 369.12 C 553.17 374.18, 553.01 376.68, 552.62 381.34 C 552.23 386.00, 552.15 388.39, 551.57 392.43 C 550.99 396.47, 550.05 398.50, 549.73 401.52 C 549.40 404.55, 549.27 405.87, 549.95 407.57 C 550.64 409.27, 551.84 409.69, 553.14 410.04 C 554.44 410.38, 555.60 410.09, 556.43 409.29 C 557.27 408.50, 557.37 407.78, 557.33 406.05 C 557.28 404.32, 556.88 403.13, 556.21 400.65 C 555.54 398.16, 554.77 396.74, 554.00 393.62 C 553.23 390.50, 552.92 388.65, 552.36 385.05 C 551.81 381.45, 551.55 379.44, 551.22 375.63 C 550.89 371.81, 550.80 369.82, 550.70 365.98 C 550.60 362.13, 550.70 360.17, 550.72 356.41 C 550.75 352.65, 550.91 350.49, 550.81 347.18 C 550.72 343.87, 551.01 342.30, 550.23 339.87 C 549.45 337.44, 548.57 335.91, 546.90 335.03 C 545.23 334.15, 543.36 334.38, 541.87 335.48" style="stroke: black; fill: black;"/><path d="M 546.39,371.26 C 547.25 372.66, 548.12 372.96, 549.97 373.58 C 551.82 374.20, 553.01 374.60, 555.65 374.36 C 558.30 374.12, 559.88 373.21, 563.18 372.38 C 566.49 371.56, 568.43 371.04, 572.19 370.24 C 575.95 369.44, 578.05 369.35, 581.99 368.38 C 585.92 367.41, 590.08 367.20, 591.87 365.40 C 593.65 363.60, 593.14 360.53, 590.89 359.38 C 588.65 358.22, 584.64 359.38, 580.63 359.65 C 576.61 359.92, 574.63 360.46, 570.84 360.73 C 567.04 361.00, 565.03 360.93, 561.65 361.01 C 558.26 361.08, 556.52 360.67, 553.91 361.13 C 551.30 361.58, 550.24 362.19, 548.60 363.27 C 546.95 364.36, 546.13 364.97, 545.69 366.56 C 545.25 368.16, 545.54 369.85, 546.39 371.26" style="stroke: black; fill: black;"/><path d="M 634.50,312.43 C 633.22 313.12, 632.89 313.52, 632.24 314.96 C 631.58 316.39, 631.06 317.34, 631.22 319.59 C 631.39 321.84, 632.08 323.22, 633.06 326.21 C 634.05 329.21, 635.01 330.94, 636.16 334.57 C 637.31 338.19, 637.77 340.24, 638.83 344.33 C 639.89 348.42, 640.41 350.69, 641.46 355.00 C 642.52 359.31, 643.01 361.55, 644.11 365.88 C 645.20 370.21, 645.80 372.51, 646.96 376.65 C 648.12 380.78, 648.79 382.84, 649.90 386.55 C 651.01 390.26, 651.35 392.11, 652.50 395.18 C 653.64 398.24, 654.14 399.77, 655.65 401.88 C 657.16 404.00, 658.03 404.82, 660.04 405.76 C 662.05 406.71, 663.39 406.96, 665.68 406.60 C 667.97 406.25, 669.59 405.67, 671.49 403.98 C 673.40 402.29, 674.34 400.90, 675.20 398.15 C 676.06 395.39, 675.55 393.52, 675.80 390.21 C 676.05 386.90, 676.05 385.02, 676.44 381.59 C 676.83 378.17, 677.09 376.33, 677.73 373.09 C 678.38 369.86, 678.87 368.19, 679.66 365.42 C 680.45 362.65, 681.14 361.34, 681.67 359.24 C 682.19 357.14, 682.40 356.02, 682.29 354.91 C 682.19 353.80, 681.54 353.50, 681.15 353.69 C 680.76 353.88, 680.21 354.44, 680.34 355.86 C 680.46 357.28, 680.47 358.54, 681.77 360.80 C 683.07 363.05, 684.75 364.27, 686.83 367.14 C 688.91 370.01, 690.02 371.85, 692.17 375.16 C 694.32 378.48, 695.37 380.32, 697.60 383.73 C 699.83 387.13, 701.00 388.97, 703.33 392.19 C 705.67 395.41, 706.88 397.02, 709.29 399.82 C 711.71 402.63, 712.84 404.09, 715.39 406.20 C 717.94 408.31, 719.32 409.23, 722.05 410.39 C 724.79 411.55, 726.26 411.92, 729.05 412.00 C 731.83 412.09, 733.38 411.89, 735.98 410.80 C 738.58 409.71, 740.01 408.79, 742.04 406.57 C 744.08 404.34, 745.05 402.85, 746.15 399.67 C 747.24 396.49, 747.09 394.57, 747.52 390.68 C 747.95 386.80, 748.16 384.62, 748.28 380.25 C 748.40 375.88, 748.36 373.50, 748.12 368.83 C 747.89 364.15, 747.68 361.66, 747.10 356.89 C 746.52 352.11, 746.16 349.63, 745.21 344.97 C 744.25 340.31, 743.59 337.93, 742.33 333.60 C 741.07 329.26, 740.35 327.13, 738.90 323.28 C 737.44 319.43, 736.60 317.57, 735.05 314.33 C 733.51 311.10, 732.78 309.44, 731.17 307.11 C 729.56 304.79, 728.58 303.87, 727.00 302.70 C 725.43 301.53, 724.52 301.50, 723.30 301.26 C 722.07 301.03, 721.69 301.11, 720.89 301.52 C 720.09 301.93, 719.69 302.53, 719.31 303.31 C 718.94 304.09, 718.96 304.33, 719.02 305.42 C 719.07 306.50, 718.93 307.14, 719.60 308.73 C 720.27 310.32, 720.89 311.33, 722.39 313.36 C 723.88 315.40, 725.27 316.30, 727.08 318.91 C 728.89 321.53, 729.83 323.06, 731.44 326.44 C 733.06 329.83, 733.83 331.82, 735.16 335.83 C 736.49 339.83, 737.16 342.08, 738.09 346.45 C 739.02 350.83, 739.35 353.19, 739.80 357.70 C 740.25 362.21, 740.36 364.63, 740.33 369.00 C 740.30 373.37, 740.18 375.61, 739.63 379.55 C 739.08 383.50, 738.54 385.53, 737.58 388.73 C 736.61 391.93, 735.68 393.29, 734.81 395.56 C 733.93 397.82, 733.77 398.72, 733.19 400.06 C 732.60 401.40, 732.54 401.77, 731.88 402.25 C 731.21 402.74, 730.92 402.71, 729.84 402.47 C 728.76 402.23, 728.08 401.95, 726.48 401.05 C 724.88 400.16, 723.91 399.53, 721.83 398.01 C 719.76 396.48, 718.40 395.65, 716.11 393.43 C 713.81 391.22, 712.58 389.81, 710.35 386.93 C 708.12 384.06, 706.97 382.34, 704.96 379.06 C 702.95 375.78, 702.02 373.99, 700.30 370.53 C 698.59 367.07, 697.84 365.13, 696.41 361.76 C 694.98 358.39, 694.89 356.25, 693.17 353.67 C 691.44 351.09, 690.19 350.12, 687.79 348.86 C 685.39 347.59, 683.72 347.17, 681.16 347.35 C 678.60 347.54, 676.99 348.17, 674.97 349.79 C 672.96 351.41, 672.24 352.86, 671.09 355.47 C 669.94 358.08, 669.89 359.70, 669.21 362.83 C 668.53 365.96, 668.36 367.74, 667.70 371.13 C 667.05 374.51, 666.76 376.37, 665.95 379.75 C 665.14 383.13, 664.56 385.01, 663.67 388.03 C 662.78 391.05, 661.83 392.59, 661.49 394.86 C 661.14 397.14, 661.48 398.12, 661.96 399.39 C 662.44 400.66, 663.20 401.03, 663.87 401.22 C 664.54 401.41, 665.17 401.21, 665.30 400.34 C 665.43 399.46, 665.24 398.65, 664.51 396.83 C 663.77 395.01, 662.93 393.87, 661.62 391.24 C 660.32 388.61, 659.39 387.05, 657.97 383.67 C 656.55 380.29, 655.80 378.30, 654.52 374.36 C 653.24 370.42, 652.63 368.20, 651.56 363.99 C 650.48 359.77, 650.02 357.55, 649.15 353.28 C 648.28 349.00, 647.85 346.73, 647.21 342.59 C 646.56 338.46, 646.26 336.39, 645.93 332.60 C 645.59 328.81, 645.80 326.80, 645.52 323.64 C 645.24 320.48, 645.27 318.95, 644.51 316.81 C 643.76 314.68, 642.94 314.02, 641.77 312.96 C 640.59 311.90, 640.08 311.62, 638.63 311.52 C 637.18 311.41, 635.77 311.75, 634.50 312.43" style="stroke: black; fill: black;"/><path d="M 768.03,316.79 C 766.95 317.95, 766.83 318.78, 766.73 320.54 C 766.64 322.30, 766.70 323.38, 767.55 325.59 C 768.41 327.80, 769.36 329.03, 771.03 331.59 C 772.70 334.15, 773.96 335.47, 775.90 338.39 C 777.84 341.31, 778.78 342.95, 780.72 346.20 C 782.65 349.44, 783.63 351.23, 785.57 354.60 C 787.51 357.96, 788.50 359.74, 790.41 363.03 C 792.31 366.31, 793.25 367.99, 795.10 371.03 C 796.94 374.07, 797.71 375.67, 799.65 378.23 C 801.58 380.79, 802.60 382.25, 804.78 383.84 C 806.96 385.42, 808.61 385.85, 810.56 386.16 C 812.51 386.47, 813.44 386.15, 814.53 385.37 C 815.61 384.60, 815.93 383.55, 815.98 382.28 C 816.02 381.02, 815.56 380.38, 814.74 379.06 C 813.92 377.74, 813.26 377.18, 811.88 375.67 C 810.51 374.16, 809.64 373.51, 807.87 371.52 C 806.09 369.53, 804.95 368.36, 803.00 365.73 C 801.05 363.11, 800.06 361.50, 798.13 358.40 C 796.21 355.29, 795.21 353.54, 793.38 350.20 C 791.55 346.87, 790.61 345.07, 788.98 341.72 C 787.35 338.37, 786.53 336.66, 785.22 333.45 C 783.91 330.24, 783.56 328.50, 782.43 325.67 C 781.30 322.85, 780.90 321.31, 779.58 319.34 C 778.26 317.36, 777.33 316.73, 775.84 315.81 C 774.36 314.89, 773.71 314.54, 772.15 314.74 C 770.59 314.94, 769.11 315.63, 768.03 316.79" style="stroke: black; fill: black;"/><path d="M 840.02,321.25 C 838.48 321.12, 837.76 321.51, 836.39 322.57 C 835.02 323.62, 834.17 324.38, 833.17 326.54 C 832.17 328.71, 831.98 330.27, 831.38 333.41 C 830.78 336.54, 830.84 338.49, 830.17 342.24 C 829.50 345.99, 828.97 348.00, 828.03 352.16 C 827.09 356.32, 826.47 358.59, 825.47 363.05 C 824.47 367.51, 823.96 369.85, 823.04 374.46 C 822.12 379.07, 821.62 381.47, 820.87 386.10 C 820.13 390.74, 819.80 393.16, 819.31 397.64 C 818.82 402.12, 818.66 404.36, 818.42 408.52 C 818.18 412.68, 817.90 414.81, 818.12 418.44 C 818.34 422.06, 818.53 424.12, 819.52 426.63 C 820.52 429.13, 821.64 430.26, 823.11 430.97 C 824.58 431.68, 825.79 431.38, 826.86 430.19 C 827.93 429.00, 828.37 427.53, 828.46 425.01 C 828.56 422.49, 827.73 420.87, 827.32 417.60 C 826.91 414.33, 826.55 412.50, 826.43 408.65 C 826.32 404.79, 826.44 402.61, 826.76 398.33 C 827.08 394.05, 827.36 391.71, 828.05 387.24 C 828.74 382.76, 829.24 380.42, 830.22 375.96 C 831.20 371.49, 831.75 369.22, 832.94 364.91 C 834.13 360.61, 834.83 358.43, 836.18 354.45 C 837.52 350.47, 838.24 348.48, 839.68 345.01 C 841.11 341.53, 842.13 339.90, 843.35 337.06 C 844.58 334.22, 845.34 332.95, 845.80 330.80 C 846.26 328.64, 845.97 327.79, 845.63 326.27 C 845.29 324.76, 845.23 324.23, 844.11 323.22 C 842.98 322.22, 841.57 321.38, 840.02 321.25" style="stroke: black; fill: black;"/><path d="M 877.77,344.65 C 876.47 345.53, 876.43 346.18, 875.79 347.87 C 875.14 349.56, 874.49 350.51, 874.54 353.11 C 874.59 355.72, 875.54 357.46, 876.03 360.91 C 876.53 364.37, 876.72 366.41, 877.00 370.39 C 877.28 374.38, 877.26 376.59, 877.43 380.83 C 877.60 385.07, 877.69 387.35, 877.83 391.59 C 877.97 395.82, 878.09 398.02, 878.14 401.99 C 878.19 405.97, 878.04 408.01, 878.09 411.44 C 878.13 414.87, 877.75 416.87, 878.36 419.17 C 878.96 421.46, 880.16 421.92, 881.11 422.93 C 882.06 423.95, 882.30 424.01, 883.09 424.22 C 883.88 424.43, 884.35 424.36, 885.07 423.98 C 885.79 423.60, 885.98 423.45, 886.69 422.32 C 887.41 421.19, 888.40 420.62, 888.63 418.32 C 888.85 416.01, 888.23 414.15, 887.81 410.79 C 887.40 407.43, 886.95 405.44, 886.57 401.54 C 886.20 397.64, 886.11 395.46, 885.94 391.29 C 885.78 387.13, 885.71 384.90, 885.77 380.72 C 885.82 376.54, 885.96 374.40, 886.23 370.39 C 886.50 366.38, 886.79 364.28, 887.13 360.68 C 887.47 357.08, 888.19 355.23, 887.95 352.39 C 887.70 349.54, 887.03 348.25, 885.90 346.47 C 884.77 344.68, 883.92 343.84, 882.30 343.47 C 880.67 343.11, 879.07 343.77, 877.77 344.65" style="stroke: black; fill: black;"/><path d="M 879.65,353.19 C 880.32 354.45, 880.71 354.31, 881.29 354.95 C 881.86 355.58, 881.66 355.57, 882.52 356.35 C 883.38 357.14, 883.82 357.58, 885.60 358.87 C 887.38 360.16, 888.97 360.68, 891.42 362.82 C 893.87 364.95, 895.24 366.55, 897.84 369.54 C 900.44 372.52, 901.77 374.24, 904.41 377.75 C 907.06 381.25, 908.39 383.26, 911.08 387.05 C 913.78 390.85, 915.14 392.92, 917.88 396.71 C 920.61 400.50, 922.06 402.44, 924.76 406.02 C 927.45 409.60, 928.77 411.40, 931.35 414.60 C 933.93 417.81, 935.19 419.36, 937.65 422.06 C 940.12 424.76, 941.15 426.25, 943.68 428.09 C 946.22 429.94, 947.61 430.56, 950.33 431.28 C 953.05 432.01, 954.59 432.18, 957.28 431.71 C 959.98 431.25, 961.46 430.63, 963.79 428.95 C 966.11 427.26, 967.46 426.10, 968.93 423.27 C 970.40 420.44, 970.49 418.46, 971.13 414.78 C 971.76 411.10, 971.70 409.05, 972.11 404.87 C 972.51 400.70, 972.78 398.42, 973.15 393.90 C 973.52 389.37, 973.67 386.89, 973.96 382.26 C 974.24 377.63, 974.38 375.27, 974.58 370.75 C 974.78 366.24, 974.94 363.89, 974.96 359.68 C 974.98 355.46, 975.20 353.31, 974.67 349.67 C 974.15 346.04, 973.79 343.03, 972.32 341.48 C 970.86 339.94, 968.50 340.22, 967.35 341.96 C 966.20 343.71, 966.64 346.65, 966.58 350.21 C 966.53 353.76, 966.97 355.70, 967.07 359.76 C 967.17 363.81, 967.20 366.08, 967.07 370.47 C 966.94 374.86, 966.80 377.21, 966.42 381.71 C 966.03 386.21, 965.81 388.63, 965.16 392.98 C 964.51 397.32, 964.05 399.58, 963.15 403.41 C 962.25 407.24, 961.70 409.18, 960.66 412.12 C 959.61 415.06, 958.69 416.19, 957.93 418.13 C 957.16 420.07, 957.27 420.83, 956.85 421.82 C 956.43 422.81, 956.47 422.98, 955.81 423.08 C 955.15 423.19, 954.76 423.04, 953.56 422.34 C 952.35 421.65, 951.70 420.97, 949.77 419.61 C 947.85 418.25, 946.39 417.60, 943.92 415.54 C 941.45 413.49, 940.06 412.17, 937.41 409.35 C 934.76 406.52, 933.39 404.81, 930.66 401.43 C 927.94 398.04, 926.49 396.15, 923.80 392.43 C 921.11 388.71, 919.79 386.68, 917.21 382.83 C 914.63 378.98, 913.36 376.91, 910.92 373.18 C 908.48 369.44, 907.28 367.63, 905.01 364.14 C 902.73 360.65, 901.71 358.87, 899.53 355.72 C 897.36 352.57, 896.61 350.57, 894.13 348.40 C 891.65 346.22, 889.81 345.49, 887.14 344.85 C 884.47 344.22, 882.62 344.46, 880.79 345.22 C 878.95 345.98, 878.18 347.05, 877.95 348.64 C 877.73 350.24, 878.99 351.93, 879.65 353.19" style="stroke: black; fill: black;"/></svg>