<svg xmlns="http://www.w3.org/2000/svg" id="canvas" viewBox="535.863 300.964 506.704 163.491"><path d="M 608.29,323.44 C 608.28 321.68, 607.55 320.57, 606.01 319.17 C 604.46 317.77, 603.19 317.12, 600.55 316.44 C 597.91 315.75, 596.02 315.43, 592.81 315.74 C 589.59 316.05, 587.86 316.79, 584.47 318.00 C 581.09 319.21, 579.37 320.02, 575.88 321.80 C 572.38 323.59, 570.52 324.56, 567.00 326.94 C 563.48 329.32, 561.61 330.72, 558.28 333.70 C 554.95 336.67, 553.21 338.35, 550.36 341.82 C 547.50 345.28, 546.07 347.20, 544.00 351.03 C 541.92 354.86, 540.98 356.94, 539.97 360.96 C 538.97 364.98, 538.67 367.16, 538.98 371.12 C 539.29 375.08, 539.80 377.21, 541.51 380.75 C 543.23 384.28, 544.60 386.07, 547.56 388.81 C 550.51 391.54, 552.47 392.71, 556.28 394.43 C 560.09 396.14, 562.30 396.71, 566.61 397.39 C 570.91 398.07, 573.28 398.16, 577.79 397.84 C 582.31 397.52, 584.73 397.05, 589.16 395.78 C 593.59 394.51, 595.84 393.60, 599.94 391.50 C 604.03 389.40, 606.07 388.07, 609.63 385.28 C 613.19 382.49, 614.89 380.89, 617.75 377.56 C 620.61 374.23, 621.89 372.36, 623.93 368.61 C 625.97 364.86, 626.78 362.77, 627.95 358.83 C 629.13 354.90, 629.44 352.84, 629.81 348.94 C 630.18 345.03, 630.03 343.00, 629.83 339.29 C 629.62 335.58, 629.63 333.60, 628.78 330.38 C 627.93 327.16, 627.44 325.10, 625.56 323.20 C 623.69 321.31, 621.81 320.77, 619.41 320.91 C 617.01 321.05, 615.20 321.86, 613.58 323.92 C 611.96 325.98, 611.21 327.87, 611.30 331.20 C 611.39 334.53, 612.78 336.61, 614.03 340.56 C 615.27 344.52, 616.04 346.73, 617.53 350.96 C 619.03 355.18, 619.76 357.45, 621.50 361.69 C 623.24 365.92, 624.16 368.10, 626.22 372.14 C 628.27 376.18, 629.38 378.26, 631.77 381.89 C 634.16 385.53, 635.46 387.27, 638.17 390.32 C 640.88 393.37, 642.38 394.80, 645.31 397.14 C 648.24 399.48, 649.89 400.91, 652.80 402.03 C 655.70 403.16, 657.55 403.03, 659.84 402.76 C 662.13 402.49, 663.33 401.83, 664.25 400.67 C 665.18 399.52, 665.03 398.23, 664.48 396.98 C 663.93 395.74, 662.98 395.47, 661.50 394.44 C 660.02 393.42, 659.24 392.87, 657.07 391.86 C 654.91 390.86, 653.24 390.88, 650.68 389.41 C 648.12 387.94, 646.74 386.90, 644.27 384.51 C 641.79 382.12, 640.54 380.62, 638.30 377.44 C 636.05 374.27, 634.95 372.37, 633.04 368.65 C 631.14 364.94, 630.22 362.88, 628.77 358.87 C 627.31 354.86, 626.64 352.67, 625.75 348.60 C 624.86 344.53, 624.62 342.23, 624.33 338.51 C 624.04 334.78, 624.79 332.66, 624.31 329.97 C 623.83 327.29, 623.12 326.19, 621.94 325.08 C 620.76 323.97, 619.51 323.91, 618.40 324.42 C 617.29 324.93, 616.47 325.84, 616.39 327.65 C 616.31 329.45, 617.21 330.89, 617.99 333.44 C 618.78 335.99, 619.73 337.44, 620.31 340.41 C 620.90 343.39, 621.01 345.10, 620.90 348.33 C 620.79 351.56, 620.60 353.25, 619.76 356.55 C 618.92 359.84, 618.32 361.62, 616.71 364.80 C 615.09 367.98, 614.08 369.58, 611.70 372.46 C 609.33 375.34, 607.88 376.76, 604.83 379.19 C 601.77 381.62, 599.98 382.81, 596.42 384.62 C 592.87 386.42, 590.88 387.20, 587.06 388.22 C 583.24 389.24, 581.13 389.57, 577.33 389.72 C 573.54 389.88, 571.54 389.67, 568.09 388.98 C 564.64 388.29, 562.93 387.68, 560.09 386.28 C 557.25 384.89, 555.94 383.95, 553.89 382.02 C 551.84 380.09, 551.02 378.98, 549.83 376.64 C 548.64 374.29, 548.23 373.04, 547.93 370.30 C 547.62 367.56, 547.65 366.00, 548.31 362.92 C 548.97 359.83, 549.58 358.07, 551.24 354.88 C 552.89 351.69, 554.09 349.95, 556.58 346.96 C 559.06 343.98, 560.65 342.45, 563.67 339.94 C 566.69 337.42, 568.46 336.25, 571.68 334.40 C 574.90 332.55, 576.66 331.81, 579.79 330.68 C 582.91 329.56, 584.61 329.17, 587.32 328.77 C 590.04 328.36, 591.15 328.58, 593.34 328.67 C 595.52 328.76, 596.46 329.10, 598.25 329.22 C 600.04 329.33, 600.73 329.48, 602.29 329.23 C 603.85 328.98, 604.84 329.12, 606.04 327.96 C 607.24 326.80, 608.29 325.19, 608.29 323.44" style="stroke: black; fill: black;"/><path d="M 677.62,330.31 C 676.12 331.22, 675.58 332.43, 674.97 334.63 C 674.36 336.84, 674.21 338.30, 674.58 341.34 C 674.95 344.38, 675.85 346.36, 676.81 349.83 C 677.76 353.29, 678.34 355.12, 679.35 358.66 C 680.37 362.21, 680.85 364.06, 681.89 367.53 C 682.93 371.01, 683.45 372.82, 684.57 376.04 C 685.69 379.25, 686.09 380.92, 687.50 383.60 C 688.90 386.28, 689.74 387.53, 691.61 389.45 C 693.48 391.37, 694.54 392.31, 696.84 393.19 C 699.14 394.07, 700.66 394.24, 703.11 393.86 C 705.57 393.47, 707.03 392.84, 709.12 391.25 C 711.20 389.65, 712.23 388.44, 713.54 385.87 C 714.85 383.30, 714.98 381.57, 715.66 378.40 C 716.34 375.22, 716.36 373.36, 716.95 369.99 C 717.55 366.61, 717.89 364.77, 718.62 361.50 C 719.36 358.24, 719.96 356.48, 720.64 353.65 C 721.32 350.82, 721.95 349.43, 722.04 347.36 C 722.13 345.30, 721.85 344.17, 721.08 343.34 C 720.31 342.51, 719.07 342.47, 718.20 343.21 C 717.32 343.95, 716.60 345.09, 716.70 347.04 C 716.79 348.98, 717.30 350.29, 718.67 352.94 C 720.03 355.59, 721.51 357.19, 723.53 360.28 C 725.54 363.38, 726.56 365.21, 728.73 368.42 C 730.90 371.63, 732.02 373.31, 734.36 376.32 C 736.70 379.33, 737.88 380.84, 740.43 383.47 C 742.99 386.10, 744.31 387.49, 747.14 389.47 C 749.97 391.45, 751.54 392.38, 754.58 393.37 C 757.62 394.36, 759.30 394.54, 762.35 394.43 C 765.41 394.32, 767.02 394.02, 769.85 392.82 C 772.69 391.61, 774.25 390.73, 776.54 388.41 C 778.82 386.09, 779.83 384.47, 781.29 381.22 C 782.75 377.98, 783.06 376.00, 783.83 372.19 C 784.60 368.38, 784.82 366.29, 785.15 362.19 C 785.49 358.09, 785.56 355.85, 785.50 351.69 C 785.44 347.53, 785.27 345.36, 784.86 341.39 C 784.44 337.41, 784.03 335.37, 783.42 331.82 C 782.82 328.26, 782.82 326.34, 781.84 323.60 C 780.86 320.86, 779.90 319.70, 778.52 318.10 C 777.14 316.50, 776.31 315.85, 774.95 315.60 C 773.58 315.35, 772.55 315.79, 771.68 316.85 C 770.82 317.91, 770.71 318.87, 770.61 320.89 C 770.51 322.92, 770.46 324.34, 771.18 326.97 C 771.89 329.59, 773.20 330.92, 774.18 334.02 C 775.16 337.12, 775.59 338.92, 776.10 342.47 C 776.61 346.01, 776.75 348.01, 776.74 351.74 C 776.72 355.48, 776.56 357.57, 776.02 361.16 C 775.49 364.75, 775.05 366.65, 774.06 369.67 C 773.08 372.70, 772.27 374.08, 771.09 376.30 C 769.91 378.53, 769.29 379.37, 768.17 380.80 C 767.04 382.24, 766.66 382.78, 765.46 383.47 C 764.27 384.16, 763.67 384.30, 762.19 384.26 C 760.71 384.22, 759.92 383.98, 758.07 383.27 C 756.22 382.57, 755.11 382.10, 752.93 380.76 C 750.75 379.41, 749.42 378.57, 747.18 376.54 C 744.95 374.50, 743.79 373.23, 741.75 370.59 C 739.71 367.95, 738.67 366.38, 736.97 363.33 C 735.28 360.28, 734.47 358.59, 733.28 355.34 C 732.08 352.10, 732.20 349.92, 730.99 347.11 C 729.78 344.31, 729.11 343.04, 727.22 341.32 C 725.32 339.61, 723.90 338.87, 721.52 338.54 C 719.13 338.21, 717.33 338.50, 715.29 339.67 C 713.26 340.83, 712.47 342.07, 711.34 344.38 C 710.21 346.68, 710.24 348.23, 709.64 351.20 C 709.03 354.18, 708.97 356.01, 708.29 359.26 C 707.61 362.50, 707.18 364.30, 706.23 367.45 C 705.28 370.60, 704.50 372.31, 703.54 375.01 C 702.58 377.70, 701.96 379.00, 701.43 380.93 C 700.90 382.86, 700.93 383.60, 700.90 384.65 C 700.86 385.71, 701.16 385.99, 701.23 386.18 C 701.31 386.38, 701.55 386.27, 701.26 385.63 C 700.98 385.00, 700.58 384.46, 699.80 383.01 C 699.02 381.56, 698.51 380.53, 697.36 378.38 C 696.21 376.23, 695.31 375.00, 694.06 372.26 C 692.81 369.52, 692.13 367.88, 691.12 364.69 C 690.11 361.50, 689.68 359.70, 689.01 356.32 C 688.35 352.93, 688.12 351.12, 687.79 347.77 C 687.47 344.41, 687.84 342.35, 687.38 339.54 C 686.93 336.72, 686.48 335.57, 685.50 333.68 C 684.52 331.79, 684.07 330.76, 682.49 330.09 C 680.91 329.41, 679.13 329.40, 677.62 330.31" style="stroke: black; fill: black;"/><path d="M 813.86,322.40 C 812.55 323.13, 812.06 323.79, 811.58 325.52 C 811.10 327.25, 810.77 328.63, 811.48 331.05 C 812.18 333.47, 813.17 334.98, 815.10 337.64 C 817.04 340.30, 818.60 341.54, 821.13 344.35 C 823.66 347.17, 824.97 348.73, 827.77 351.71 C 830.56 354.68, 832.06 356.31, 835.09 359.23 C 838.13 362.14, 839.60 363.86, 842.93 366.28 C 846.25 368.70, 849.27 371.23, 851.72 371.32 C 854.17 371.41, 855.86 369.02, 855.16 366.75 C 854.46 364.47, 851.02 362.66, 848.22 359.95 C 845.41 357.24, 843.82 356.04, 841.12 353.21 C 838.41 350.38, 836.99 348.80, 834.69 345.81 C 832.38 342.81, 831.25 341.20, 829.61 338.23 C 827.97 335.26, 827.60 333.52, 826.47 330.97 C 825.34 328.41, 825.06 327.07, 823.96 325.46 C 822.85 323.84, 822.10 323.62, 820.94 322.90 C 819.78 322.18, 819.57 321.97, 818.15 321.87 C 816.73 321.77, 815.18 321.67, 813.86 322.40" style="stroke: black; fill: black;"/><path d="M 903.78,327.33 C 902.27 326.64, 901.10 326.64, 899.04 327.51 C 896.99 328.39, 895.73 329.22, 893.52 331.72 C 891.30 334.21, 890.46 336.29, 887.97 340.00 C 885.48 343.71, 884.13 345.86, 881.09 350.26 C 878.05 354.67, 876.32 357.04, 872.77 362.02 C 869.21 367.01, 867.22 369.71, 863.33 375.20 C 859.44 380.68, 857.29 383.65, 853.32 389.45 C 849.36 395.25, 847.28 398.33, 843.50 404.20 C 839.71 410.07, 837.77 413.14, 834.39 418.79 C 831.02 424.44, 829.37 427.35, 826.60 432.46 C 823.84 437.56, 822.42 440.03, 820.55 444.32 C 818.68 448.61, 817.77 450.73, 817.26 453.91 C 816.74 457.09, 817.12 458.82, 817.96 460.22 C 818.80 461.62, 820.16 461.80, 821.46 460.91 C 822.75 460.03, 823.36 458.63, 824.42 455.80 C 825.48 452.97, 825.34 450.91, 826.77 446.75 C 828.21 442.59, 829.20 440.07, 831.60 434.99 C 834.00 429.91, 835.57 426.97, 838.77 421.34 C 841.97 415.71, 843.88 412.65, 847.60 406.84 C 851.33 401.02, 853.40 397.97, 857.39 392.27 C 861.39 386.56, 863.57 383.64, 867.58 378.30 C 871.60 372.96, 873.65 370.32, 877.45 365.56 C 881.26 360.81, 883.12 358.51, 886.59 354.54 C 890.06 350.56, 891.73 348.65, 894.80 345.69 C 897.87 342.73, 899.75 341.85, 901.93 339.73 C 904.12 337.61, 904.79 336.83, 905.72 335.08 C 906.65 333.32, 906.96 332.51, 906.57 330.96 C 906.18 329.41, 905.28 328.02, 903.78 327.33" style="stroke: black; fill: black;"/><path d="M 935.40,321.06 C 933.91 321.57, 933.52 322.24, 932.51 323.82 C 931.50 325.41, 930.71 326.38, 930.35 328.99 C 929.99 331.59, 930.66 333.48, 930.71 336.84 C 930.76 340.20, 930.78 342.13, 930.59 345.80 C 930.39 349.46, 930.16 351.51, 929.75 355.17 C 929.34 358.84, 929.05 360.80, 928.54 364.13 C 928.03 367.47, 927.35 369.12, 927.19 371.85 C 927.03 374.58, 926.95 375.95, 927.73 377.77 C 928.51 379.59, 929.40 380.39, 931.11 380.94 C 932.83 381.49, 934.49 381.36, 936.31 380.53 C 938.12 379.70, 939.24 378.82, 940.19 376.77 C 941.14 374.72, 940.97 373.23, 941.07 370.29 C 941.18 367.35, 940.54 365.45, 940.73 362.07 C 940.92 358.70, 941.20 356.90, 942.01 353.40 C 942.83 349.90, 943.37 348.09, 944.82 344.58 C 946.28 341.08, 947.19 339.23, 949.30 335.87 C 951.41 332.51, 952.63 330.78, 955.37 327.78 C 958.12 324.78, 959.74 323.28, 963.03 320.86 C 966.32 318.43, 968.21 317.31, 971.84 315.65 C 975.48 313.99, 977.46 313.29, 981.21 312.54 C 984.97 311.78, 986.98 311.66, 990.62 311.86 C 994.25 312.06, 996.05 312.39, 999.37 313.53 C 1002.70 314.66, 1004.31 315.52, 1007.24 317.55 C 1010.17 319.58, 1011.57 320.84, 1014.01 323.69 C 1016.46 326.54, 1017.57 328.23, 1019.48 331.79 C 1021.38 335.35, 1022.17 337.42, 1023.53 341.49 C 1024.88 345.57, 1025.36 347.83, 1026.25 352.17 C 1027.13 356.51, 1027.39 358.90, 1027.94 363.21 C 1028.49 367.52, 1028.75 369.92, 1028.99 373.74 C 1029.24 377.55, 1028.65 379.54, 1029.17 382.28 C 1029.68 385.01, 1030.60 385.86, 1031.58 387.39 C 1032.55 388.92, 1032.97 389.54, 1034.05 389.94 C 1035.13 390.35, 1036.09 390.14, 1036.98 389.43 C 1037.86 388.72, 1037.96 388.09, 1038.47 386.40 C 1038.98 384.70, 1039.72 383.72, 1039.54 380.96 C 1039.35 378.19, 1038.36 376.35, 1037.56 372.56 C 1036.76 368.77, 1036.36 366.40, 1035.54 362.02 C 1034.73 357.64, 1034.48 355.22, 1033.49 350.65 C 1032.51 346.08, 1032.07 343.66, 1030.63 339.17 C 1029.18 334.69, 1028.39 332.35, 1026.27 328.23 C 1024.14 324.12, 1022.91 322.04, 1020.02 318.59 C 1017.13 315.15, 1015.42 313.51, 1011.80 310.99 C 1008.19 308.47, 1006.09 307.37, 1001.92 305.97 C 997.76 304.58, 995.45 304.22, 990.99 304.03 C 986.54 303.83, 984.11 304.06, 979.65 305.01 C 975.19 305.96, 972.90 306.82, 968.68 308.77 C 964.46 310.71, 962.35 311.99, 958.56 314.74 C 954.77 317.49, 952.92 319.17, 949.74 322.52 C 946.55 325.88, 945.14 327.79, 942.63 331.51 C 940.11 335.23, 939.05 337.26, 937.17 341.10 C 935.29 344.95, 934.61 346.96, 933.23 350.73 C 931.84 354.50, 931.44 356.44, 930.24 359.95 C 929.03 363.45, 927.95 365.23, 927.18 368.26 C 926.42 371.29, 925.97 372.86, 926.40 375.10 C 926.84 377.33, 927.84 378.37, 929.35 379.43 C 930.87 380.50, 932.41 380.70, 933.98 380.43 C 935.55 380.16, 936.30 379.61, 937.20 378.08 C 938.09 376.54, 938.18 375.35, 938.45 372.76 C 938.72 370.17, 938.38 368.44, 938.53 365.13 C 938.68 361.82, 938.79 359.87, 939.19 356.23 C 939.60 352.59, 939.91 350.59, 940.56 346.94 C 941.21 343.29, 941.73 341.36, 942.43 337.98 C 943.13 334.59, 944.03 332.74, 944.07 330.02 C 944.12 327.31, 943.46 326.16, 942.64 324.41 C 941.82 322.65, 941.43 321.92, 939.98 321.25 C 938.54 320.58, 936.90 320.54, 935.40 321.06" style="stroke: black; fill: black;"/></svg>